# AST/ASF file generated using VICON BodyLanguage
# -----------------------------------------------
:version 1.10
:name VICON
:units
  mass 1.0
  length 0.45
  angle deg
:documentation
   .ast/.asf automatically generated from VICON data using
   VICON BodyBuilder and BodyLanguage model FoxedUp or BRILLIANT.MOD
:root
   order TX TY TZ RX RY RZ
   axis XYZ
   position 0 0 0  
   orientation 0 0 0 
:bonedata
  begin
     id 1 
     name lhipjoint
     direction 0.597014 -0.743513 0.301268 
     length 2.48253 
     axis 0 0 0  XYZ
  end
  begin
     id 2 
     name lfemur
     direction 0.34202 -0.939693 0  
     length 7.51389  
     axis 0 0 20  XYZ
    dof rx ry rz
    limits (-160.0 20.0)
           (-70.0 70.0)
           (-60.0 70.0)
  end
  begin
     id 3 
     name ltibia
     direction 0.34202 -0.939693 0   
     length 7.54147   
     axis 0 0 20   XYZ
    dof rx
    limits (-10.0 170.0)
  end
  begin
     id 4 
     name lfoot
     direction 0.10378 -0.285133 0.952853   
     length 2.2132   
     axis -90 7.62852e-016 20   XYZ
    dof rx rz
    limits (-45.0 90.0)
           (-70.0 20.0)
  end
  begin
     id 5 
     name ltoes
     direction 1.5354e-011 -4.2171e-011 1   
     length 1.10362   
     axis -90 7.62852e-016 20   XYZ
    dof rx
    limits (-90.0 20.0)
  end
  begin
     id 6 
     name rhipjoint
     direction -0.591912 -0.747009 0.302685   
     length 2.47092  
     axis 0 0 0  XYZ 
  end
  begin
     id 7 
     name rfemur
     direction -0.34202 -0.939693 0   
     length 7.69991   
     axis 0 0 -20   XYZ
    dof rx ry rz
    limits (-160.0 20.0)
           (-70.0 70.0)
           (-70.0 60.0)
  end
  begin
     id 8 
     name rtibia
     direction -0.34202 -0.939693 0   
     length 7.40774   
     axis 0 0 -20   XYZ
    dof rx
    limits (-10.0 170.0)
 end
 begin
     id 9 
     name rfoot
     direction -0.0916245 -0.251736 0.963449   
     length 2.08235  
     axis -90 -7.62852e-016 -20   XYZ
    dof rx rz
    limits (-45.0 90.0)
           (-20.0 70.0)
  end
  begin
     id 10 
     name rtoes
     direction -1.53527e-011 -4.21878e-011 1   
     length 1.04369   
     axis -90 -7.62852e-016 -20   XYZ
    dof rx
    limits (-90.0 20.0)
  end
  begin
     id 11 
     name lowerback
     direction -0.0122523 0.991496 -0.12956   
     length 2.10814   
     axis 0 0 0   XYZ
    dof rx ry rz
    limits (-20.0 45.0)
           (-30.0 30.0)
           (-30.0 30.0)
  end
  begin
     id 12 
     name upperback
     direction 0.012378 0.999784 -0.0167122   
     length 2.11728   
     axis 0 0 0   XYZ
    dof rx ry rz
    limits (-20.0 45.0)
           (-30.0 30.0)
           (-30.0 30.0)
  end
  begin
     id 13 
     name thorax
     direction 0.0187236 0.998893 0.0431542   
     length 2.15267   
     axis 0 0 0   XYZ
    dof rx ry rz
    limits (-20.0 45.0)
           (-30.0 30.0)
           (-30.0 30.0)
  end
  begin
     id 14 
     name lowerneck
     direction 0.0165467 0.987304 0.157979   
     length 1.72129   
     axis 0 0 0   XYZ
    dof rx ry rz
    limits (-20.0 45.0)
           (-30.0 30.0)
           (-30.0 30.0)
  end
  begin
     id 15 
     name upperneck
     direction -0.0560236 0.986819 -0.151818   
     length 1.75382   
     axis 0 0 0   XYZ
    dof rx ry rz
    limits (-20.0 45.0)
           (-30.0 30.0)
           (-30.0 30.0)
  end
  begin
     id 16
     name head
     direction -0.0173602 0.99745 -0.0692312  
     length 1.76328  
     axis 0 0 0   XYZ
    dof rx ry rz
    limits (-20.0 45.0)
           (-30.0 30.0)
           (-30.0 30.0)
  end
  begin
     id 17 
     name lclavicle
     direction 0.957734 0.271724 -0.094399  
     length 3.5782  
     axis 0 0 0   XYZ
    dof ry rz
    limits (-20.0 10.0)
           (0.0 20.0)
  end
  begin
     id 18 
     name lhumerus
     direction 1 -4.48963e-011 1.21581e-027   
     length 5.25525   
     axis 180 -30 -90   XYZ
    dof rx ry rz
    limits (-60.0 90.0)
           (-90.0 90.0)
           (-90.0 90.0)
  end
  begin
     id 19
     name lradius
     direction 1 -4.48975e-011 3.71216e-028   
     length 3.35106   
     axis 180 -30 -90   XYZ
    dof rx
    limits (-10.0 170.0)
  end
  begin
     id 20
     name lwrist
     direction 1 -4.48957e-011 4.76535e-027   
     length 1.67553   
     axis -3.27501e-015 90 90   XYZ
    dof ry
    limits (-180.0 0.0)
 end
  begin
     id 21 
     name lhand
     direction 1 -4.49008e-011 9.52727e-027   
     length 0.574153   
     axis -6.08097e-015 90 90   XYZ
    dof rx rz
    limits (-90.0 90.0)
           (-45.0 45.0)
  end
  begin
     id 22 
     name lfingers
     direction 1 -4.48996e-011 1.90562e-026   
     length 0.462897   
     axis -1.21618e-014 90 90   XYZ
    dof rx
    limits (0.0 90.0)
  end
  begin
     id 23
     name lthumb
     direction 0.707107 -6.34908e-011 0.707107   
     length 0.66463   
     axis -90 45 -1.62303e-014   XYZ
    dof rx rz
    limits (-45.0 45.0)
           (-45.0 45.0)
  end
  begin
     id 24 
     name rclavicle
     direction -0.950439 0.29623 -0.0944132   
     length 3.45861  
     axis 0 0 0   XYZ 
    dof ry rz
    limits (-10.0 20.0)
           (-20.0 0.0)
  end
  begin
     id 25 
     name rhumerus
     direction -1 -4.48986e-011 1.25473e-027  
     length 5.33104   
     axis 180 30 90   XYZ
    dof rx ry rz
    limits (-90.0 60.0)
           (-90.0 90.0)
           (-90.0 90.0)
  end
  begin
     id 26 
     name rradius
     direction -1 -4.4894e-011 1.66273e-027   
     length 3.39883   
     axis 180 30 90   XYZ
    dof rx
    limits (-10.0 170.0)
  end
  begin
     id 27 
     name rwrist
     direction -1 -4.48946e-011 4.76572e-027   
     length 1.69941   
     axis -3.27501e-015 -90 -90   XYZ
    dof ry
    limits (-180.0 0.0)
  end
  begin
     id 28
     name rhand
     direction -1 -4.49028e-011 9.52595e-027   
     length 0.913886   
     axis -6.08097e-015 -90 -90   XYZ
    dof rx rz
    limits (-90.0 90.0)
           (-45.0 45.0)
  end
  begin
     id 29
     name rfingers
     direction -1 -4.48945e-011 1.9063e-026   
     length 0.736798   
     axis -1.21618e-014 -90 -90   XYZ
    dof rx
    limits (0.0 90.0)
  end
  begin
     id 30
     name rthumb
     direction -0.707107 -6.34966e-011 0.707107   
     length 1.0579   
     axis -90 -45 1.62303e-014   XYZ
    dof rx rz
    limits (-45.0 45.0)
           (-45.0 45.0)
  end
:hierarchy
  begin
    root lhipjoint rhipjoint lowerback
    lhipjoint lfemur
    lfemur ltibia
    ltibia lfoot
    lfoot ltoes
    rhipjoint rfemur
    rfemur rtibia
    rtibia rfoot
    rfoot rtoes
    lowerback upperback
    upperback thorax
    thorax lowerneck lclavicle rclavicle
    lowerneck upperneck
    upperneck head
    lclavicle lhumerus
    lhumerus lradius
    lradius lwrist
    lwrist lhand lthumb
    lhand lfingers
    rclavicle rhumerus
    rhumerus rradius
    rradius rwrist
    rwrist rhand rthumb
    rhand rfingers
  end

#!OML:ASF F:\VICON\USERDATA\INSTALL\rory3\rory3.ASF
:FULLY-SPECIFIED
:DEGREES
241
root -17.527 16.7224 18.7203 -227.819 87.8119 -223.206
lowerback 21.4605 0.662083 0.346646
upperback 3.59244 1.54078 3.35463
thorax -8.15926 0.895698 3.01327
lowerneck -21.135 6.71959 2.38204
upperneck 10.8588 11.017 -13.8394
head 7.79928 4.20472 -3.50172
rclavicle -5.1684e-015 -3.81667e-014
rhumerus -25.9651 -13.4832 -49.449
rradius 50.4008
rwrist -36.1736
rhand -30.1555 359.021
rfingers 7.12502
rthumb -3.46759 -750.931
lclavicle -5.1684e-015 -3.81667e-014
lhumerus -9.93086 34.958 13.019
lradius 74.4062
lwrist 28.0238
lhand -28.051 19.9007
lfingers 7.12502
lthumb -1.43517 49.8757
rfemur -6.84165 -2.16906 -1.08831
rtibia 36.3354
rfoot -15.7735 -1.34308
rtoes -32.3624
lfemur -11.6831 -7.87119 -5.44891
ltibia 57.6157
lfoot -15.5762 6.70245
ltoes -18.4751
242
root -17.5492 16.6571 18.6752 -234.849 87.6452 -230.22
lowerback 21.6791 0.80275 -0.162894
upperback 3.88767 1.65997 3.68898
thorax -7.98096 0.978168 3.63719
lowerneck -21.0758 6.83132 1.99114
upperneck 10.3291 11.2879 -14.1591
head 7.64272 4.33035 -3.50429
rclavicle -1.07344e-014 -4.92986e-014
rhumerus -26.1329 -13.3891 -51.0155
rradius 49.9322
rwrist -36.9398
rhand -29.4785 358.843
rfingers 7.12502
rthumb -2.81386 -751.119
lclavicle -1.07344e-014 -4.92986e-014
lhumerus -7.57358 36.2226 11.2953
lradius 71.9677
lwrist 30.1286
lhand -28.481 19.5386
lfingers 7.12502
lthumb -1.8505 49.5103
rfemur -7.46332 -1.91032 -1.64405
rtibia 37.3883
rfoot -16.2052 -1.59811
rtoes -33.8387
lfemur -12.264 -7.88755 -5.077
ltibia 57.6555
lfoot -15.684 6.21332
ltoes -19.1838
243
root -17.5799 16.5745 18.6159 -234.202 87.3439 -229.563
lowerback 21.9993 0.860905 -0.426604
upperback 4.08013 1.71436 3.89245
thorax -7.95591 1.01996 3.99593
lowerneck -21.1316 6.90311 1.82218
upperneck 10.188 11.4377 -14.2367
head 7.6158 4.39772 -3.47922
rclavicle 4.77083e-015 -1.11319e-014
rhumerus -26.712 -13.7694 -52.6246
rradius 49.6786
rwrist -37.7641
rhand -29.3031 358.456
rfingers 7.12502
rthumb -2.64439 -751.507
lclavicle 4.77083e-015 -1.11319e-014
lhumerus -5.24491 37.3238 9.97368
lradius 69.9162
lwrist 31.8038
lhand -28.1118 19.9753
lfingers 7.12502
lthumb -1.49385 49.9498
rfemur -7.9418 -1.67979 -2.07306
rtibia 38.3796
rfoot -16.8306 -2.50727
rtoes -36.5809
lfemur -13.1048 -7.86742 -4.52138
ltibia 57.7919
lfoot -15.8679 5.41041
ltoes -19.7554
244
root -17.601 16.4973 18.5377 -230.861 87.4469 -226.328
lowerback 22.1608 0.878735 -0.381923
upperback 4.1998 1.78371 4.11943
thorax -7.92128 1.06003 4.19947
lowerneck -20.8199 6.8803 1.98776
upperneck 9.70109 11.32 -14.4248
head 7.41667 4.37566 -3.59063
rclavicle -1.59028e-015 -1.43125e-014
rhumerus -27.3041 -14.3858 -54.3573
rradius 49.3428
rwrist -38.4198
rhand -28.8735 358.195
rfingers 7.12502
rthumb -2.22955 -751.773
lclavicle -1.59028e-015 -1.43125e-014
lhumerus -3.60793 38.2589 8.75873
lradius 68.6262
lwrist 32.6912
lhand -27.5624 20.8551
lfingers 7.12502
lthumb -0.963279 50.8326
rfemur -8.46888 -1.21945 -2.08737
rtibia 39.1256
rfoot -17.1265 -3.52708
rtoes -38.6147
lfemur -13.9814 -7.65773 -3.59667
ltibia 58.0281
lfoot -16.2616 4.80808
ltoes -18.2578
245
root -17.6166 16.4248 18.4344 -230.166 87.3503 -225.787
lowerback 22.1868 0.852823 -0.311098
upperback 4.34601 1.77494 4.14359
thorax -7.77224 1.05599 4.18619
lowerneck -20.6523 6.83927 2.08326
upperneck 9.2184 11.1667 -14.4482
head 7.22388 4.33958 -3.63924
rclavicle -1.19271e-014 -4.13472e-014
rhumerus -27.9337 -15.2499 -56.0963
rradius 49.2099
rwrist -39.0589
rhand -28.2149 358.024
rfingers 7.12502
rthumb -1.59342 -751.95
lclavicle -1.19271e-014 -4.13472e-014
lhumerus -2.3788 39.1341 7.80732
lradius 67.9943
lwrist 32.4397
lhand -27.6609 21.6158
lfingers 7.12502
lthumb -1.05844 51.5929
rfemur -8.91747 -0.82069 -2.52779
rtibia 39.6834
rfoot -17.3879 -3.79557
rtoes -38.101
lfemur -14.9456 -7.33976 -3.10563
ltibia 58.3479
lfoot -16.432 4.6952
ltoes -18.9659
246
root -17.6292 16.366 18.302 -222.484 87.258 -217.887
lowerback 22.5326 0.70112 0.130977
upperback 4.65185 1.71293 4.20555
thorax -7.60315 1.02548 4.01368
lowerneck -21.0639 6.84375 2.09042
upperneck 9.05238 11.1522 -14.4361
head 7.23627 4.3265 -3.6304
rclavicle 1.31198e-014 2.06736e-014
rhumerus -28.2495 -16.6477 -57.6618
rradius 49.1677
rwrist -39.5728
rhand -28.2579 357.76
rfingers 7.12502
rthumb -1.63498 -752.213
lclavicle 1.31198e-014 2.06736e-014
lhumerus -1.35275 40.1008 7.46424
lradius 67.7921
lwrist 31.0111
lhand -27.507 20.903
lfingers 7.12502
lthumb -0.909812 50.8808
rfemur -8.74376 -0.432676 -2.78793
rtibia 39.9129
rfoot -17.4031 -4.07894
rtoes -37.215
lfemur -15.6833 -7.29943 -2.52576
ltibia 58.7381
lfoot -16.427 4.1086
ltoes -19.6954
247
root -17.6343 16.2998 18.1574 -218.293 86.9618 -213.37
lowerback 23.0332 0.600976 0.0779942
upperback 4.78126 1.61031 4.32211
thorax -7.71932 0.987092 4.20255
lowerneck -21.0005 6.86825 2.15043
upperneck 8.93299 11.1877 -14.6146
head 7.20713 4.3427 -3.69401
rclavicle -3.97569e-015 -1.27222e-014
rhumerus -28.8346 -17.2372 -58.8776
rradius 49.4137
rwrist -40.8166
rhand -28.6327 357.496
rfingers 7.12502
rthumb -1.99695 -752.475
lclavicle -3.97569e-015 -1.27222e-014
lhumerus -1.0936 40.4705 7.1641
lradius 68.095
lwrist 29.1871
lhand -27.9437 20.1597
lfingers 7.12502
lthumb -1.3315 50.1353
rfemur -8.20887 0.185475 -3.3008
rtibia 39.834
rfoot -17.4067 -4.60592
rtoes -36.855
lfemur -16.2286 -7.01137 -2.22722
ltibia 59.1267
lfoot -16.4278 2.57408
ltoes -21.7943
248
root -17.6353 16.2413 17.9991 -217.817 86.5389 -212.906
lowerback 23.0975 0.630004 -0.201511
upperback 4.78658 1.58467 4.32222
thorax -7.75117 0.981634 4.37233
lowerneck -20.9366 6.72005 2.13426
upperneck 8.93381 10.9559 -14.4554
head 7.16314 4.24542 -3.67433
rclavicle -3.57812e-015 3.02153e-014
rhumerus -29.8379 -17.1077 -59.8896
rradius 50.2244
rwrist -42.6749
rhand -29.0724 356.976
rfingers 7.12502
rthumb -2.42168 -752.99
lclavicle -3.57812e-015 3.02153e-014
lhumerus -0.793875 40.5366 7.39683
lradius 68.6515
lwrist 26.7494
lhand -28.1342 19.8057
lfingers 7.12502
lthumb -1.5155 49.78
rfemur -7.76017 0.613687 -4.0921
rtibia 39.2771
rfoot -17.056 -5.46314
rtoes -38.3133
lfemur -17.0716 -6.59509 -2.26736
ltibia 59.558
lfoot -16.377 -0.0287539
ltoes -25.5045
249
root -17.6269 16.1912 17.8088 -215.599 86.2963 -210.593
lowerback 23.1855 0.607823 -0.23797
upperback 4.75845 1.55094 4.32254
thorax -7.82615 0.967641 4.40447
lowerneck -20.9403 6.56002 2.13707
upperneck 9.05018 10.6964 -14.1881
head 7.15883 4.133 -3.62499
rclavicle 6.75868e-015 1.59028e-014
rhumerus -30.9017 -17.0415 -60.7978
rradius 51.0023
rwrist -44.1662
rhand -29.426 356.926
rfingers 7.12502
rthumb -2.76308 -753.036
lclavicle 6.75868e-015 1.59028e-014
lhumerus -0.654641 40.2979 7.80547
lradius 69.3663
lwrist 24.0955
lhand -27.9038 19.9184
lfingers 7.12502
lthumb -1.29298 49.8942
rfemur -6.95826 0.971969 -4.769
rtibia 38.2106
rfoot -16.4196 -6.06368
rtoes -39.554
lfemur -17.5754 -6.09575 -2.32834
ltibia 60.0345
lfoot -16.5505 -2.65948
ltoes -29.1211
250
root -17.6035 16.164 17.5941 -209.291 86.3434 -204.136
lowerback 23.1863 0.582645 -0.0942452
upperback 4.69279 1.57418 4.49908
thorax -7.90325 0.980253 4.51107
lowerneck -20.8448 6.38084 2.04532
upperneck 9.14035 10.4156 -13.8327
head 7.11754 4.01975 -3.5364
rclavicle -2.78299e-015 1.59028e-015
rhumerus -31.692 -17.4733 -61.2532
rradius 51.2085
rwrist -44.9502
rhand -29.6083 357.057
rfingers 7.12502
rthumb -2.93913 -752.902
lclavicle -2.78299e-015 1.59028e-015
lhumerus -0.941939 39.6452 8.26656
lradius 70.2775
lwrist 21.6185
lhand -28.2534 19.8973
lfingers 7.12502
lthumb -1.63064 49.8708
rfemur -5.74188 1.53599 -4.94875
rtibia 36.4172
rfoot -15.2602 -7.1402
rtoes -41.3439
lfemur -17.7739 -5.68033 -2.19587
ltibia 60.5592
lfoot -16.8445 -4.76451
ltoes -31.0919
251
root -17.569 16.1754 17.3465 -192.861 86.6116 -187.66
lowerback 23.0067 0.455281 0.777514
upperback 4.51832 1.64948 4.80645
thorax -7.9979 1.00328 4.32612
lowerneck -20.7506 6.3212 2.38795
upperneck 9.57198 10.2606 -13.7072
head 7.23659 3.94365 -3.57433
rclavicle -1.51076e-014 -1.90833e-014
rhumerus -32.7708 -17.8604 -61.2951
rradius 51.5911
rwrist -45.6228
rhand -29.3803 357.085
rfingers 7.12502
rthumb -2.71902 -752.877
lclavicle -1.51076e-014 -1.90833e-014
lhumerus -1.43485 38.6589 8.9269
lradius 71.1721
lwrist 19.7569
lhand -28.1412 19.992
lfingers 7.12502
lthumb -1.52233 49.9663
rfemur -4.20798 2.754 -4.37761
rtibia 33.843
rfoot -14.018 -7.94837
rtoes -40.5699
lfemur -17.8726 -4.71017 -1.42403
ltibia 60.9781
lfoot -16.8986 -6.86451
ltoes -31.6785
252
root -17.5342 16.1978 17.057 -179.657 86.6104 -174.348
lowerback 22.8255 0.281539 1.47894
upperback 4.39433 1.61573 5.04977
thorax -8.02874 0.976259 4.20116
lowerneck -20.7824 6.30825 2.81049
upperneck 9.85746 10.1537 -13.7106
head 7.34586 3.88791 -3.65864
rclavicle -1.07344e-014 -3.02153e-014
rhumerus -33.6464 -18.2258 -61.1099
rradius 52.054
rwrist -46.1876
rhand -29.2264 357.213
rfingers 7.12502
rthumb -2.5704 -752.751
lclavicle -1.07344e-014 -3.02153e-014
lhumerus -2.58626 37.4581 9.34508
lradius 72.1892
lwrist 18.581
lhand -27.9535 19.913
lfingers 7.12502
lthumb -1.34097 49.8885
rfemur -2.19668 3.83417 -4.20794
rtibia 30.432
rfoot -12.5225 -8.50174
rtoes -38.6263
lfemur -17.7718 -3.50044 -1.13399
ltibia 61.1247
lfoot -17.1728 -8.76705
ltoes -32.9547
253
root -17.4892 16.2461 16.7284 -176.112 86.7041 -170.969
lowerback 22.3375 0.215636 1.63264
upperback 4.15771 1.55198 5.18384
thorax -8.02956 0.938771 4.28038
lowerneck -21.0649 6.05724 2.68276
upperneck 10.305 9.81003 -13.2466
head 7.47176 3.71921 -3.53115
rclavicle 1.07344e-014 1.59028e-015
rhumerus -34.4747 -18.8595 -60.5471
rradius 52.5925
rwrist -46.2268
rhand -29.2283 357.152
rfingers 7.12502
rthumb -2.57224 -752.812
lclavicle 1.07344e-014 1.59028e-015
lhumerus -3.97431 36.0459 9.8923
lradius 73.1625
lwrist 17.6431
lhand -27.525 19.4355
lfingers 7.12502
lthumb -0.927113 49.4133
rfemur -0.254011 5.33643 -4.74141
rtibia 26.5679
rfoot -10.9165 -9.43645
rtoes -34.2536
lfemur -17.4219 -2.71404 -1.84396
ltibia 60.7273
lfoot -18.0064 -9.8821
ltoes -34.3648
254
root -17.4507 16.3033 16.3776 -176.454 87.1227 -171.501
lowerback 22.0141 0.16837 1.41858
upperback 3.93665 1.4321 5.30866
thorax -8.10251 0.883685 4.57902
lowerneck -21.6142 5.81748 2.21354
upperneck 10.6686 9.51879 -12.5128
head 7.58867 3.58117 -3.24793
rclavicle -1.07344e-014 2.70347e-014
rhumerus -34.9947 -19.3423 -59.866
rradius 53.2181
rwrist -46.4611
rhand -29.2919 357.298
rfingers 7.12502
rthumb -2.63361 -752.665
lclavicle -1.07344e-014 2.70347e-014
lhumerus -6.18126 34.7331 10.1768
lradius 74.2118
lwrist 17.0134
lhand -26.9304 19.3184
lfingers 7.12502
lthumb -0.352857 49.2978
rfemur 1.57731 7.53645 -5.60695
rtibia 22.5309
rfoot -9.37709 -10.8758
rtoes -25.6967
lfemur -16.5888 -2.62161 -3.09029
ltibia 59.836
lfoot -19.0212 -10.5841
ltoes -33.9859
255
root -17.4131 16.3909 15.9991 -182.52 87.8183 -177.959
lowerback 21.5266 0.186284 1.13213
upperback 3.69107 1.35084 5.28301
thorax -8.11301 0.842757 4.73954
lowerneck -21.969 5.68941 2.29482
upperneck 10.9012 9.31247 -12.3475
head 7.70106 3.47307 -3.23161
rclavicle 9.54166e-015 2.38542e-014
rhumerus -35.4483 -19.97 -59.0626
rradius 54.0788
rwrist -46.4393
rhand -29.2001 356.952
rfingers 7.12502
rthumb -2.54493 -753.012
lclavicle 9.54166e-015 2.38542e-014
lhumerus -8.46488 33.4185 10.5148
lradius 75.1471
lwrist 16.4226
lhand -26.1771 19.0844
lfingers 7.12502
lthumb 0.374732 49.0638
rfemur 2.65112 9.64967 -6.72333
rtibia 18.95
rfoot -5.508 -13.909
rtoes -27.9414
lfemur -15.5509 -2.67324 -4.76521
ltibia 58.3875
lfoot -19.7251 -11.7363
ltoes -30.5967
